<svg width="99" height="46" viewBox="0 0 99 46" fill="none" xmlns="http://www.w3.org/2000/svg">
<g clip-path="url(#clip0_700_4597)">
<path d="M17.3689 14.0538C20.0084 14.0538 22.2242 15.8105 22.2242 19.0637C22.2242 19.2914 22.2242 19.4541 22.1917 19.7794H14.2731C14.3709 21.4385 15.7069 22.5121 17.3689 22.5121C18.7701 22.5121 19.7477 21.8614 20.2691 20.9831L21.9636 22.1867C21.0511 23.6181 19.487 24.529 17.3689 24.529C14.3057 24.529 12.0898 22.3494 12.0898 19.2914C12.0898 16.331 14.3057 14.0538 17.3689 14.0538ZM14.3709 18.1528H19.9758C19.7477 16.6889 18.5746 15.9081 17.2711 15.9081C15.9676 15.9081 14.6968 16.6563 14.3709 18.1528ZM18.6397 9.20654H21.3118L18.3139 13.0453H16.6194L18.6397 9.20654Z" fill="#065C9E"/>
<path d="M47.707 14.0538C49.1734 14.0538 50.3791 14.8021 50.933 15.6154V14.249H53.1489V24.3339H50.933V22.9676C50.3791 23.7808 49.1408 24.5291 47.707 24.5291C44.9371 24.5291 42.8516 22.1543 42.8516 19.2915C42.8516 16.4287 44.9371 14.0538 47.707 14.0538ZM48.098 16.0708C46.3057 16.0708 45.1 17.4697 45.1 19.2915C45.1 21.1132 46.3057 22.5121 48.098 22.5121C49.8903 22.5121 51.096 21.1132 51.096 19.2915C51.1286 17.4697 49.8903 16.0708 48.098 16.0708Z" fill="#065C9E"/>
<path d="M65.0117 14.249H67.2276V16.0382C67.6186 14.8996 68.7266 14.1514 69.8997 14.1514C70.193 14.1514 70.4537 14.1839 70.7795 14.2164V16.4937C70.3885 16.3635 70.0626 16.2985 69.6716 16.2985C68.4007 16.2985 67.2602 17.372 67.2602 19.389V24.3013H65.0443V14.249H65.0117Z" fill="#065C9E"/>
<path d="M83.3897 14.0538C86.0292 14.0538 88.2451 15.8106 88.2451 19.0637C88.2451 19.2915 88.2451 19.4541 88.2125 19.7794H80.2614C80.3592 21.4386 81.6952 22.5121 83.3571 22.5121C84.7584 22.5121 85.736 21.8615 86.2573 20.9831L87.9518 22.1868C87.0394 23.6182 85.4753 24.5291 83.3571 24.5291C80.294 24.5291 78.0781 22.3494 78.0781 19.2915C78.1107 16.3311 80.294 14.0538 83.3897 14.0538ZM80.3918 18.1528H85.9966C85.7685 16.6889 84.5954 15.9081 83.292 15.9081C81.9885 15.9081 80.685 16.6564 80.3918 18.1528Z" fill="#065C9E"/>
<path d="M46.96 46C45.1678 46 43.6362 45.2843 42.8867 43.8529L44.516 42.6817C44.9071 43.5601 45.9173 44.0806 46.9274 44.0806C47.7095 44.0806 48.3938 43.7227 48.3938 43.007C48.3938 42.4215 48.0354 42.0636 46.8297 41.7058L45.9498 41.478C44.1902 40.9901 43.2778 39.884 43.3103 38.3875C43.3429 36.5983 44.9071 35.4922 46.9274 35.4922C48.459 35.4922 49.6321 36.1103 50.349 37.2164L48.8175 38.3875C48.3612 37.7694 47.7421 37.3465 46.8949 37.3465C46.2431 37.3465 45.5262 37.7044 45.5262 38.2899C45.5262 38.7779 45.7543 39.2008 46.7319 39.4936L47.7747 39.7864C49.567 40.3069 50.6097 41.1853 50.6097 42.8444C50.6097 44.7963 49.0456 46 46.96 46Z" fill="#065C9E"/>
<path d="M52.6602 35.72H54.876V41.3806C54.876 43.0072 55.5929 43.9831 56.8964 43.9831C58.3302 43.9831 59.373 42.8445 59.373 40.6649V35.6875H61.5889V45.7724H59.373V44.406C58.7864 45.4145 57.7111 45.9676 56.4076 45.9676C54.094 45.9676 52.6602 44.3084 52.6602 41.7059V35.72Z" fill="#065C9E"/>
<path d="M73.8077 46.0001C72.0154 46.0001 70.4839 45.2844 69.7344 43.853L71.3637 42.6818C71.7547 43.5602 72.7649 44.0807 73.7751 44.0807C74.5572 44.0807 75.2415 43.7229 75.2415 43.0072C75.2415 42.4216 74.8831 42.0637 73.6774 41.7059L72.7975 41.4782C71.0378 40.9902 70.1254 39.8841 70.158 38.3876C70.1906 36.5984 71.7547 35.4923 73.7751 35.4923C75.3067 35.4923 76.4798 36.1104 77.1967 37.2165L75.6651 38.3876C75.2089 37.7695 74.5898 37.3466 73.7425 37.3466C73.0908 37.3466 72.3739 37.7045 72.3739 38.29C72.3739 38.778 72.602 39.2009 73.5796 39.4937L74.6224 39.7865C76.4146 40.307 77.4574 41.1854 77.4574 42.8445C77.49 44.7964 75.8932 46.0001 73.8077 46.0001Z" fill="#065C9E"/>
<path d="M83.2921 46.0001C81.4998 46.0001 79.9682 45.2844 79.2188 43.853L80.8481 42.6818C81.2391 43.5602 82.2493 44.0807 83.2595 44.0807C84.0415 44.0807 84.7259 43.7229 84.7259 43.0072C84.7259 42.4216 84.3674 42.0637 83.1617 41.7059L82.2819 41.4782C80.5222 40.9902 79.6098 39.8841 79.6424 38.3876C79.675 36.5984 81.2391 35.4923 83.2595 35.4923C84.791 35.4923 85.9641 36.1104 86.681 37.2165L85.1495 38.3876C84.6933 37.7695 84.0741 37.3466 83.2269 37.3466C82.5752 37.3466 81.8583 37.7045 81.8583 38.29C81.8583 38.778 82.0864 39.2009 83.0639 39.4937L84.1067 39.7865C85.899 40.307 86.9417 41.1854 86.9417 42.8445C86.9417 44.7964 85.3776 46.0001 83.2921 46.0001Z" fill="#065C9E"/>
<path d="M94.0108 35.5248C96.6503 35.5248 98.8662 37.2815 98.8662 40.5347C98.8662 40.7624 98.8662 40.9251 98.8336 41.2504H90.8825C90.9803 42.9095 92.3163 43.9831 93.9782 43.9831C95.3795 43.9831 96.3571 43.3324 96.8784 42.4541L98.5729 43.6577C97.6605 45.0891 96.0964 46 93.9782 46C90.9151 46 88.6992 43.8204 88.6992 40.7624C88.7644 37.802 90.9477 35.5248 94.0108 35.5248ZM91.0454 39.6238H96.6503C96.4222 38.1599 95.2491 37.3791 93.9457 37.3791C92.6422 37.3791 91.3387 38.1273 91.0454 39.6238Z" fill="#065C9E"/>
<path d="M5.47453 14.0537C4.00814 14.0537 2.80244 14.8019 2.21588 15.6152V14.2489H0V27.5219V28.5304V29.7341C1.23829 29.7341 2.21588 28.7581 2.21588 27.5219V22.9674C2.76985 23.7807 4.00814 24.529 5.47453 24.529C8.24438 24.529 10.3299 22.1541 10.3299 19.2913C10.3299 16.4285 8.24438 14.0537 5.47453 14.0537ZM5.08349 22.512C3.29124 22.512 2.05295 21.1131 2.05295 19.2913C2.05295 17.4696 3.29124 16.0707 5.08349 16.0707C6.87575 16.0707 8.08145 17.4696 8.08145 19.2913C8.08145 21.1131 6.84316 22.512 5.08349 22.512Z" fill="#065C9E"/>
<path d="M34.6411 7.84009C33.4028 7.84009 32.4252 8.81604 32.4252 10.0523V15.5827C31.8712 14.7694 30.6329 14.0211 29.1991 14.0211C26.4293 14.0211 24.3438 16.396 24.3438 19.2588C24.3438 22.1216 26.3967 24.5289 29.1666 24.5289C30.6329 24.5289 31.8386 23.7807 32.3926 22.9674V24.3337H34.6085V10.0523V7.84009H34.6411ZM29.5902 22.5119C27.7979 22.5119 26.5922 21.1131 26.5922 19.2913C26.5922 17.4695 27.7979 16.0706 29.5902 16.0706C31.3824 16.0706 32.5881 17.4695 32.5881 19.2913C32.5881 21.1131 31.3824 22.5119 29.5902 22.5119Z" fill="#065C9E"/>
<path d="M62.4047 16.2009V14.2165H59.5045V11.5164V10.4103C58.2663 10.4103 57.2887 11.4188 57.2887 12.6224V14.2165H55.2031V16.2009H57.2887V21.0482C57.2887 23.3254 58.7876 24.399 60.7428 24.399C61.4271 24.399 61.9485 24.3339 62.4047 24.1712V22.1868C62.0789 22.3169 61.6227 22.382 61.199 22.382C60.0585 22.382 59.5045 21.9265 59.5045 20.6578V16.2009H62.4047Z" fill="#065C9E"/>
<path d="M39.1671 7.77515C40.7312 7.77515 42.0021 9.04389 42.0021 10.6054C42.0021 12.1669 40.7312 13.4357 39.1671 13.4357C37.6029 13.4357 36.332 12.1669 36.332 10.6054C36.332 9.04389 37.6029 7.77515 39.1671 7.77515Z" fill="#065C9E"/>
<path d="M74.4263 13.338C78.1157 13.338 81.1066 10.3522 81.1066 6.66902C81.1066 2.98582 78.1157 0 74.4263 0C70.7369 0 67.7461 2.98582 67.7461 6.66902C67.7461 10.3522 70.7369 13.338 74.4263 13.338Z" fill="#065C9E"/>
<path d="M74.4243 14.3139C74.0333 14.3139 73.6749 14.2814 73.3164 14.2163V24.3012H75.5323V14.2163C75.1413 14.2814 74.7828 14.3139 74.4243 14.3139Z" fill="#065C9E"/>
<path d="M66.0218 34.8742C68.5774 34.8742 70.6491 32.8059 70.6491 30.2547C70.6491 27.7034 68.5774 25.6351 66.0218 25.6351C63.4662 25.6351 61.3945 27.7034 61.3945 30.2547C61.3945 32.8059 63.4662 34.8742 66.0218 34.8742Z" fill="#065C9E"/>
<path d="M66.022 35.8176C65.631 35.8176 65.2725 35.785 64.9141 35.72V45.8048H67.1299V35.72C66.7715 35.785 66.3805 35.8176 66.022 35.8176Z" fill="#065C9E"/>
<path d="M39.1704 14.4117C38.7794 14.4117 38.421 14.3466 38.0625 14.249V24.3339H40.2784V14.249C39.9199 14.3466 39.5615 14.4117 39.1704 14.4117Z" fill="#065C9E"/>
</g>
<defs>
<clipPath id="clip0_700_4597">
<rect width="98.9" height="46" fill="white"/>
</clipPath>
</defs>
</svg>
