<svg xmlns="http://www.w3.org/2000/svg" width="18" height="14.628" viewBox="0 0 18 14.628">
    <g>
        <path fill="#1fabf4" d="M152.486 36.732a7.384 7.384 0 0 1-2.121.581 3.707 3.707 0 0 0 1.624-2.042 7.4 7.4 0 0 1-2.345.9 3.7 3.7 0 0 0-6.293 3.369 10.49 10.49 0 0 1-7.613-3.859 3.7 3.7 0 0 0 1.144 4.931 3.7 3.7 0 0 1-1.673-.462v.047a3.7 3.7 0 0 0 2.962 3.621 3.682 3.682 0 0 1-.973.13 3.622 3.622 0 0 1-.695-.067 3.7 3.7 0 0 0 3.449 2.564 7.409 7.409 0 0 1-4.586 1.581 7.6 7.6 0 0 1-.881-.051 10.5 10.5 0 0 0 16.167-8.849c0-.159 0-.319-.01-.477a7.535 7.535 0 0 0 1.844-1.917z" transform="translate(-134.486 -35)"/>
    </g>
</svg>
