<svg xmlns="http://www.w3.org/2000/svg" width="18" height="18" viewBox="0 0 18 18">
    <g>
        <path fill="#1877f2" d="M521 512a9 9 0 1 0-10.406 8.891V514.6h-2.285V512h2.285v-1.983a3.175 3.175 0 0 1 3.4-3.5 13.9 13.9 0 0 1 2.015.175v2.215h-1.135a1.3 1.3 0 0 0-1.467 1.406V512h2.5l-.4 2.6h-2.1v6.289A9 9 0 0 0 521 512z" transform="translate(-503 -503)"/>
        <path fill="#fff" d="M515.5 514.6l.4-2.6h-2.5v-1.688a1.3 1.3 0 0 1 1.467-1.406h1.135v-2.215a13.9 13.9 0 0 0-2.015-.175 3.175 3.175 0 0 0-3.4 3.5V512h-2.285v2.6h2.285v6.289a9.122 9.122 0 0 0 2.812 0V514.6z" transform="translate(-503 -503)"/>
    </g>
</svg>
