<svg xmlns="http://www.w3.org/2000/svg" width="18.05" height="18.05" viewBox="0 0 18.05 18.05">
    <g>
        <path d="M1223.619-771.382h3.827l.288.009c.357.009.715.015 1.072.027.39.013.78.029 1.168.078a6.36 6.36 0 0 1 1.188.259 4.64 4.64 0 0 1 1.819 1.078 4.67 4.67 0 0 1 1.227 2.009 6.721 6.721 0 0 1 .289 1.72c.027.625.037 1.252.056 1.877 0 .022 0 .043.006.065v3.808a.27.27 0 0 0-.006.041v.3c-.008.343-.014.686-.026 1.029-.013.39-.029.781-.078 1.169a6.025 6.025 0 0 1-.307 1.327 4.548 4.548 0 0 1-2.65 2.765 6.153 6.153 0 0 1-1.989.422c-.458.027-.916.043-1.375.056-.376.01-.753.012-1.129.012q-1.7 0-3.4-.005-.536 0-1.072-.019t-1.042-.05a6.546 6.546 0 0 1-1.175-.181 4.723 4.723 0 0 1-2.382-1.36 4.562 4.562 0 0 1-.87-1.325 6.02 6.02 0 0 1-.462-1.98c-.034-.506-.051-1.014-.067-1.521-.011-.375-.012-.75-.012-1.125q0-2.053.015-4.106c0-.281.017-.563.028-.844a10.518 10.518 0 0 1 .088-1.092 5.771 5.771 0 0 1 .391-1.451 4.522 4.522 0 0 1 2.171-2.331 5.686 5.686 0 0 1 2.134-.571c.324-.027.65-.044.975-.055.416-.014.832-.018 1.248-.027l.052-.008zm1.914 1.627h-1.552c-.448 0-.9.005-1.343.02q-.625.021-1.25.068a4.1 4.1 0 0 0-1.063.228 2.946 2.946 0 0 0-1.819 1.733 4.6 4.6 0 0 0-.307 1.484c-.027.477-.041.954-.055 1.432-.009.331-.01.661-.01.992v2.958q0 .823.029 1.646c.011.354.035.707.067 1.06a4.015 4.015 0 0 0 .238 1.037 2.935 2.935 0 0 0 1.6 1.72 4.487 4.487 0 0 0 1.6.353c.474.027.948.042 1.422.054.386.01.772.01 1.158.01h2.806q.818 0 1.637-.029c.354-.011.707-.035 1.06-.067a3.976 3.976 0 0 0 1.037-.238 2.937 2.937 0 0 0 1.746-1.665 4.555 4.555 0 0 0 .327-1.532c.027-.473.042-.948.055-1.422.009-.327.01-.655.01-.982v-3c0-.451-.005-.9-.02-1.352q-.021-.625-.068-1.25a4.124 4.124 0 0 0-.228-1.063 2.94 2.94 0 0 0-1.624-1.773 4.48 4.48 0 0 0-1.6-.353c-.472-.027-.945-.042-1.417-.054-.387-.01-.775-.009-1.163-.01-.421-.006-.847-.005-1.272-.005z" transform="translate(-1216.509 771.382)"/>
        <path d="M1250.431-742.084a4.633 4.633 0 0 1-4.666 4.634 4.628 4.628 0 0 1-4.6-4.671 4.628 4.628 0 0 1 4.677-4.6 4.633 4.633 0 0 1 4.589 4.637zm-7.644 0a3.013 3.013 0 0 0 2.992 3.009 3.014 3.014 0 0 0 3.026-2.989 3.007 3.007 0 0 0-2.994-3.028 3.006 3.006 0 0 0-3.025 3.009z" transform="translate(-1216.509 771.382) translate(-20.262 -20.272)"/>
        <path d="M1289.258-751.661a1.076 1.076 0 0 1-1.08-1.087 1.076 1.076 0 0 1 1.1-1.076 1.083 1.083 0 0 1 1.068 1.1 1.084 1.084 0 0 1-1.088 1.063z" transform="translate(-1216.509 771.382) translate(-58.908 -14.432)"/>
    </g>
</svg>
